#N canvas 637 55 620 692 10;
#X obj 498 82 loadbang;
#X msg 496 105 \; pd dsp 1;
#N canvas 82 436 470 338 new 1;
#X obj 148 314 send~ left;
#X obj 236 314 send~ right;
#X obj 202 161 osc~ 440;
#X obj 234 201 hsl 128 15 0 1 0 0 empty empty empty -2 -8 0 10 -262144
-1 -1 6350 1;
#X obj 213 227 *~;
#X obj 316 148 loadbang;
#X msg 320 174 0.5;
#X connect 2 0 4 0;
#X connect 3 0 4 1;
#X connect 4 0 0 0;
#X connect 4 0 1 0;
#X connect 5 0 6 0;
#X connect 6 0 3 0;
#X restore 23 72 pd new;
#X obj 523 290 print;
#X obj 23 46 netreceive 3005 0 old;
#X msg 270 182 connect localhost 3006;
#X obj 251 261 netsend;
#X msg 275 207 disconnect;
#X msg 235 144 send test;
#X msg 265 124 send stop;
#X msg 330 233 3;
#X msg 326 257 send val=\$1;
#X msg 515 229 \; pd dsp;
#X text 161 46 "old" parameter allows it to intercept FUDI messages
;
#X text 198 9 PuréeData - Server patch;
#X text 238 22 By T3db0t;
#X text 405 343 dsp ON/OFF;
#X floatatom 388 422 5 0 0 0 - - -;
#X obj 388 363 dsp;
#X obj 388 343 tgl 15 1 empty dsp_tgl empty 8 -8 0 10 -262144 -1 -1
1 1;
#X text 436 423 % mean-cpu-load;
#X floatatom 404 397 5 0 0 0 - - -;
#X text 450 397 % peak-cpu-load;
#X text 50 316 Use to broadcast to client sockets;
#X obj 92 631 mp3cast~;
#X obj 102 592 r~ left;
#X obj 164 591 r~ right;
#X obj 169 632 dac~;
#X obj 49 336 netserver 4004;
#X text 345 404 name of the stream;
#X msg 161 468 icecast2;
#X msg 161 536 connect localhost 8000;
#X msg 161 447 passwd zolamoloko;
#X msg 161 512 name PureeDataStream;
#X obj 127 385 loadbang;
#X msg 161 489 mountpoint pureedata.mp3;
#X obj 127 408 t b b;
#X msg 329 512 genre "Experimental Net Art";
#X msg 329 488 description "PureeData.net - A turbulence.org commission"
;
#X connect 0 0 1 0;
#X connect 5 0 6 0;
#X connect 7 0 6 0;
#X connect 8 0 6 0;
#X connect 9 0 6 0;
#X connect 10 0 11 0;
#X connect 11 0 6 0;
#X connect 18 0 17 0;
#X connect 18 1 21 0;
#X connect 19 0 18 0;
#X connect 25 0 24 0;
#X connect 25 0 27 0;
#X connect 26 0 24 1;
#X connect 26 0 27 1;
#X connect 30 0 24 0;
#X connect 31 0 24 0;
#X connect 32 0 24 0;
#X connect 33 0 24 0;
#X connect 34 0 36 0;
#X connect 35 0 24 0;
#X connect 36 0 31 0;
#X connect 36 1 33 0;
#X connect 36 1 32 0;
#X connect 36 1 30 0;
#X connect 36 1 35 0;
#X connect 36 1 38 0;
#X connect 36 1 37 0;
#X connect 37 0 24 0;
#X connect 38 0 24 0;
