#N canvas 10 210 705 435 10;
#X floatatom 56 -54 5 0 0 0 - - -;
#X floatatom 39 -194 5 0 0 0 - - -;
#X floatatom 373 -109 5 0 0 0 - - -;
#X text 34 -254 refreshs on the first;
#X obj 358 -62 ==;
#X obj 39 -218 r id;
#X obj 263 145 s id;
#X msg 248 112 20;
#X floatatom 358 -41 5 0 0 0 - - -;
#X floatatom 358 -162 5 0 0 0 - - -;
#X text 349 -242 resets the id;
#X floatatom 121 109 8 0 0 0 - - -;
#X obj 121 141 outlet;
#X obj -1 -128 != 0;
#X msg 288 113 0;
#X msg 268 79 10;
#X obj -1 -155 f;
#X obj 115 -186 spigot;
#X obj 115 -208 pipe 10;
#X obj 113 -137 del 10;
#X floatatom 64 -107 5 0 0 0 - - -;
#X obj -25 -178 del 10;
#X floatatom 132 -46 5 0 0 0 - - -;
#X obj 130 -72 == 0;
#X obj 89 -17 &&;
#X floatatom 91 12 5 0 0 0 - - -;
#X obj 142 -109 bng 15 250 50 0 empty empty empty 17 7 0 10 -262144
-1 -1;
#X obj 8 -95 pipe 10;
#X obj 358 -215 r decrement;
#X obj 352 145 s decrement;
#X obj 242 -109 f 0;
#X obj 421 -43 spigot;
#X obj 421 -16 - 1;
#X floatatom 351 1 5 0 0 0 - - -;
#X msg 352 120 20;
#X floatatom 462 -15 5 0 0 0 - - -;
#X obj 352 23 bng 15 250 50 0 empty empty empty 17 7 0 10 -262144 -1
-1;
#X msg 400 119 19;
#X msg 456 121 18;
#X obj 414 -133 pipe 1;
#X msg 308 -195 0;
#X connect 0 0 24 0;
#X connect 1 0 16 1;
#X connect 1 0 21 0;
#X connect 2 0 4 1;
#X connect 4 0 8 0;
#X connect 5 0 1 0;
#X connect 7 0 6 0;
#X connect 8 0 31 1;
#X connect 9 0 4 0;
#X connect 9 0 39 0;
#X connect 11 0 12 0;
#X connect 13 0 26 0;
#X connect 13 0 27 0;
#X connect 14 0 6 0;
#X connect 15 0 6 0;
#X connect 16 0 13 0;
#X connect 16 0 18 0;
#X connect 17 0 19 0;
#X connect 17 0 20 0;
#X connect 17 0 30 1;
#X connect 18 0 17 0;
#X connect 19 0 30 0;
#X connect 21 0 16 0;
#X connect 22 0 24 1;
#X connect 23 0 22 0;
#X connect 24 0 25 0;
#X connect 25 0 17 1;
#X connect 26 0 30 0;
#X connect 27 0 0 0;
#X connect 28 0 9 0;
#X connect 30 0 2 0;
#X connect 30 0 11 0;
#X connect 30 0 23 0;
#X connect 31 0 32 0;
#X connect 31 0 35 0;
#X connect 32 0 33 0;
#X connect 33 0 30 1;
#X connect 33 0 36 0;
#X connect 34 0 29 0;
#X connect 36 0 30 0;
#X connect 37 0 29 0;
#X connect 38 0 29 0;
#X connect 39 0 31 0;
#X connect 40 0 9 0;
#X coords 0 -1 1 1 80 30 1 100 100;
