#N canvas 575 90 654 547 10;
#X obj 102 101 loadbang;
#X msg 101 131 \; pd dsp 1;
#X msg 99 180 \; pd dsp 0;
#N canvas 131 91 761 674 new 0;
#X obj 300 400 send~ left;
#X obj 396 399 send~ right;
#X obj 339 288 osc~ 111;
#X msg 241 215 300;
#X msg 163 280 500;
#X msg 324 49 1;
#X obj 317 162 random 30;
#X obj 347 246 mtof;
#X obj 349 202 + 30;
#X msg 441 115 bang;
#X obj 332 117 metro 300;
#X obj 352 342 *~;
#X obj 460 292 osc~ 0.1;
#X obj 103 191 / 2;
#X msg 348 82 150;
#X obj 508 200 metro 300;
#X obj 499 253 phasor~ 440;
#X obj 469 225 osc~ 440;
#X msg 196 62 testmessage;
#X connect 2 0 11 0;
#X connect 3 0 2 0;
#X connect 4 0 2 0;
#X connect 5 0 12 0;
#X connect 6 0 8 0;
#X connect 6 0 13 0;
#X connect 6 0 8 0;
#X connect 7 0 2 0;
#X connect 8 0 7 0;
#X connect 8 0 7 0;
#X connect 9 0 6 0;
#X connect 10 0 6 0;
#X connect 11 0 1 0;
#X connect 11 0 0 0;
#X connect 11 0 1 0;
#X connect 12 0 11 1;
#X connect 12 0 11 1;
#X connect 14 0 10 1;
#X restore 231 85 pd new;
#X obj 282 232 netsend;
#X obj 301 185 r pyata;
#X msg 224 201 disconnect;
#X obj 295 85 netreceive 3000 0 old;
#X obj 282 117 loadbang;
#X msg 282 163 connect localhost 3001;
#X obj 282 139 del 6000;
#X floatatom 282 254 5 0 0 0 - - -;
#X obj 203 152 print a;
#X msg 301 208 send \$1 \$2;
#X text 198 28 PuréeData - Server patch;
#X text 213 43 By Jeraman / T3db0t;
#X obj 53 475 mp3cast~;
#X obj 63 436 r~ left;
#X obj 125 435 r~ right;
#X msg 122 312 icecast2;
#X msg 122 380 connect localhost 8000;
#X msg 122 291 passwd zolamoloko;
#X msg 122 356 name PureeDataStream;
#X obj 88 229 loadbang;
#X msg 122 333 mountpoint pureedata.mp3;
#X obj 88 252 t b b;
#X msg 290 380 url http://pureedata.net;
#X msg 290 332 description "PureeData.net-A_turbulence.org_commission"
;
#X msg 290 356 genre "Experimental_Net_Art";
#X connect 0 0 1 0;
#X connect 4 0 11 0;
#X connect 5 0 13 0;
#X connect 6 0 4 0;
#X connect 8 0 10 0;
#X connect 8 0 6 0;
#X connect 8 0 12 0;
#X connect 9 0 4 0;
#X connect 10 0 9 0;
#X connect 13 0 4 0;
#X connect 17 0 16 0;
#X connect 18 0 16 1;
#X connect 19 0 16 0;
#X connect 20 0 16 0;
#X connect 21 0 16 0;
#X connect 22 0 16 0;
#X connect 23 0 25 0;
#X connect 24 0 16 0;
#X connect 25 0 20 0;
#X connect 25 1 22 0;
#X connect 25 1 21 0;
#X connect 25 1 19 0;
#X connect 25 1 24 0;
#X connect 25 1 27 0;
#X connect 25 1 28 0;
#X connect 25 1 26 0;
#X connect 26 0 16 0;
#X connect 27 0 16 0;
#X connect 28 0 16 0;
